<svg width="129" height="16" viewBox="0 0 129 16" fill="none" xmlns="http://www.w3.org/2000/svg">
<path d="M9.74 2C9.99333 2 10.3333 2.11333 10.76 2.34C11.2 2.56667 11.58 2.83333 11.9 3.14C12.2333 3.44667 12.4 3.71333 12.4 3.94C12.4 4.06 12.2733 4.59333 12.02 5.54C11.5533 7.22 11.2067 8.68667 10.98 9.94C10.8467 10.7267 10.7067 11.76 10.56 13.04C10.4267 14.1333 10.3067 14.9 10.2 15.34C10.1067 15.78 9.95333 16 9.74 16C9.43333 16 9.06667 15.8933 8.64 15.68C8.22667 15.4533 7.86 15.1867 7.54 14.88C7.23333 14.5733 7.08 14.32 7.08 14.12C7.06667 13.9333 7.10667 13.58 7.2 13.06C7.30667 12.5267 7.42667 11.94 7.56 11.3L7.74 10.44C6.51333 10.6267 5.30667 10.76 4.12 10.84C3.98667 11.7333 3.89333 12.48 3.84 13.08C3.70667 14.16 3.58667 14.92 3.48 15.36C3.38667 15.7867 3.23333 16 3.02 16C2.71333 16 2.34667 15.8933 1.92 15.68C1.50667 15.4533 1.14 15.1867 0.82 14.88C0.513333 14.5733 0.36 14.32 0.36 14.12C0.346667 13.9067 0.406667 13.46 0.54 12.78C0.686667 12.0867 0.78 11.64 0.82 11.44C0.873333 11.1733 0.973333 10.6867 1.12 9.98C1.26667 9.26 1.38667 8.59333 1.48 7.98L1.64 7.04C1.89333 5.54667 2.12667 4.33333 2.34 3.4C2.56667 2.46667 2.79333 2 3.02 2C3.27333 2 3.61333 2.11333 4.04 2.34C4.48 2.56667 4.86 2.83333 5.18 3.14C5.51333 3.44667 5.68 3.71333 5.68 3.94C5.68 4.06 5.55333 4.59333 5.3 5.54C5.24667 5.75333 5.15333 6.11333 5.02 6.62C4.88667 7.12667 4.76667 7.6 4.66 8.04C5.9 7.94667 7.1 7.82 8.26 7.66C8.28667 7.47333 8.31333 7.32667 8.34 7.22C8.58 5.74 8.81333 4.5 9.04 3.5C9.26667 2.5 9.5 2 9.74 2ZM21.4428 13.06C22.2561 12.66 22.9428 12.2333 23.5028 11.78C24.0895 11.98 24.5228 12.26 24.8028 12.62C25.0961 12.9667 25.2428 13.3667 25.2428 13.82C25.2428 14.14 25.0161 14.4733 24.5628 14.82C24.1095 15.1533 23.5695 15.4333 22.9428 15.66C22.3161 15.8867 21.7828 16 21.3428 16C21.0361 16 20.6828 15.8867 20.2828 15.66C19.8961 15.4333 19.5561 15.1667 19.2628 14.86C18.9828 14.5533 18.8428 14.3133 18.8428 14.14C18.8428 14.0067 18.8961 13.8267 19.0028 13.6C19.1228 13.3733 19.2495 13.14 19.3828 12.9C19.5161 12.66 19.6028 12.5 19.6428 12.42L19.1428 12.14C18.4361 13.3 17.7561 14.2333 17.1028 14.94C16.4628 15.6467 15.8295 16 15.2028 16C14.7761 16 14.3228 15.8133 13.8428 15.44C13.3761 15.0667 12.9761 14.6133 12.6428 14.08C12.3228 13.5467 12.1628 13.0733 12.1628 12.66C12.1628 11.4733 12.4095 10.26 12.9028 9.02C13.3961 7.78 14.0828 6.75333 14.9628 5.94C15.8561 5.12667 16.8628 4.72 17.9828 4.72C18.3828 4.72 18.7895 4.9 19.2028 5.26C19.6161 5.62 19.8828 5.98667 20.0028 6.36C20.0695 6.06667 20.1628 5.81333 20.2828 5.6C20.4161 5.37333 20.5561 5.26 20.7028 5.26C21.0495 5.26 21.4295 5.38667 21.8428 5.64C22.2695 5.88 22.6295 6.16667 22.9228 6.5C23.2161 6.82 23.3628 7.07333 23.3628 7.26C23.3495 7.51333 23.2428 7.93333 23.0428 8.52C22.8561 9.10667 22.5495 10 22.1228 11.2C21.8695 11.8533 21.6428 12.4733 21.4428 13.06ZM15.3028 13.22C16.3828 12.5533 17.3228 11.7333 18.1228 10.76C18.9228 9.77333 19.4695 8.68667 19.7628 7.5C19.4028 7.34 19.0628 7.26 18.7428 7.26C18.1161 7.26 17.5561 7.54 17.0628 8.1C16.5695 8.66 16.1761 9.39333 15.8828 10.3C15.5895 11.2067 15.3961 12.18 15.3028 13.22ZM36.2067 11.78C36.7934 11.98 37.2267 12.26 37.5067 12.62C37.8001 12.9667 37.9467 13.3667 37.9467 13.82C37.9467 14.14 37.7201 14.4733 37.2667 14.82C36.8134 15.1533 36.2734 15.4333 35.6467 15.66C35.0201 15.8867 34.4867 16 34.0467 16C33.7401 16 33.3867 15.88 32.9867 15.64C32.5867 15.4 32.2401 15.1267 31.9467 14.82C31.6667 14.5 31.5267 14.2533 31.5267 14.08C31.5267 13.9467 31.6734 13.4267 31.9667 12.52C32.4867 10.9333 32.7467 9.93333 32.7467 9.52C32.7467 9.36 32.7067 9.28 32.6267 9.28C32.0934 9.28 31.1001 10.2133 29.6467 12.08C29.5934 12.2933 29.5334 12.56 29.4667 12.88C29.4134 13.2 29.3734 13.4267 29.3467 13.56C29.2001 14.3467 29.0601 14.9533 28.9267 15.38C28.8067 15.7933 28.6467 16 28.4467 16C28.1001 16 27.7067 15.8867 27.2667 15.66C26.8401 15.42 26.4667 15.1467 26.1467 14.84C25.8401 14.52 25.6867 14.2533 25.6867 14.04C25.6867 13.8 25.7734 13.4467 25.9467 12.98C26.1201 12.5133 26.3801 11.8733 26.7267 11.06C26.9934 10.4333 27.1934 9.94667 27.3267 9.6C27.4601 9.24 27.5267 8.98667 27.5267 8.84C27.5267 8.73333 27.4601 8.62 27.3267 8.5C27.2067 8.36667 27.0201 8.20667 26.7667 8.02C26.4734 7.79333 26.2534 7.61333 26.1067 7.48C25.9734 7.34667 25.9067 7.20667 25.9067 7.06C25.9067 6.78 26.0334 6.45333 26.2867 6.08C26.5534 5.70667 26.8601 5.38667 27.2067 5.12C27.5667 4.85333 27.8734 4.72 28.1267 4.72C28.4067 4.72 28.7267 4.84667 29.0867 5.1C29.4601 5.35333 29.7801 5.64667 30.0467 5.98C30.3267 6.3 30.4667 6.54667 30.4667 6.72C30.4667 7.04 30.4267 7.43333 30.3467 7.9C30.2801 8.36667 30.1867 8.82667 30.0667 9.28C31.0401 8 31.8467 7.01333 32.4867 6.32C33.1267 5.61333 33.6267 5.26 33.9867 5.26C34.2401 5.26 34.5467 5.38667 34.9067 5.64C35.2667 5.89333 35.5734 6.18667 35.8267 6.52C36.0934 6.84 36.2267 7.08667 36.2267 7.26C36.2134 7.48667 36.1201 7.87333 35.9467 8.42C35.7734 8.96667 35.5267 9.69333 35.2067 10.6C34.7801 11.7733 34.5067 12.5667 34.3867 12.98C34.8001 12.7667 35.1201 12.5867 35.3467 12.44C35.5867 12.28 35.8734 12.06 36.2067 11.78ZM49.7098 11.78C50.2965 11.98 50.7298 12.26 51.0098 12.62C51.3032 12.9667 51.4498 13.3667 51.4498 13.82C51.4498 14.14 51.2232 14.4733 50.7698 14.82C50.3165 15.1533 49.7765 15.4333 49.1498 15.66C48.5232 15.8867 47.9898 16 47.5498 16C47.2432 16 46.8898 15.8867 46.4898 15.66C46.1032 15.4333 45.7632 15.1667 45.4698 14.86C45.1898 14.5533 45.0498 14.3133 45.0498 14.14C45.0498 14.0067 45.1032 13.8267 45.2098 13.6C45.3298 13.3733 45.4565 13.14 45.5898 12.9C45.7232 12.66 45.8098 12.5 45.8498 12.42L45.3498 12.14C44.6432 13.2867 43.9698 14.22 43.3298 14.94C42.7032 15.6467 42.1032 16 41.5298 16C41.1032 16 40.6432 15.8133 40.1498 15.44C39.6565 15.0533 39.2365 14.6 38.8898 14.08C38.5432 13.5467 38.3698 13.0733 38.3698 12.66C38.3698 11.42 38.6298 10.1867 39.1498 8.96C39.6698 7.72 40.3565 6.70667 41.2098 5.92C42.0765 5.12 42.9898 4.72 43.9498 4.72C44.3365 4.72 44.7298 4.82 45.1298 5.02C45.5432 5.22 45.9298 5.49333 46.2898 5.84C46.4098 4.54667 46.4698 3.1 46.4698 1.5C46.4698 1.22 46.5565 0.986666 46.7298 0.799999C46.9165 0.599999 47.1365 0.499999 47.3898 0.499999C47.7632 0.499999 48.1765 0.633332 48.6298 0.899999C49.0965 1.16667 49.4898 1.48667 49.8098 1.86C50.1298 2.22 50.2898 2.51333 50.2898 2.74C50.2898 3.04667 50.2232 3.44 50.0898 3.92C49.9565 4.38667 49.7165 5.14667 49.3698 6.2C48.8898 7.62667 48.5898 8.60667 48.4698 9.14C48.1098 10.5933 47.8365 11.9 47.6498 13.06C48.4632 12.66 49.1498 12.2333 49.7098 11.78ZM41.5098 13.22C42.4165 12.54 43.2432 11.8133 43.9898 11.04C44.7365 10.2533 45.3632 9.34667 45.8698 8.32L46.0498 7.54C45.6365 7.35333 45.2698 7.26 44.9498 7.26C44.3232 7.26 43.7632 7.54 43.2698 8.1C42.7765 8.66 42.3832 9.39333 42.0898 10.3C41.7965 11.2067 41.6032 12.18 41.5098 13.22ZM65.1537 2C65.4071 2.14667 65.5937 2.35333 65.7137 2.62C65.8471 2.87333 65.9137 3.15333 65.9137 3.46C65.9137 3.72667 65.8604 3.99333 65.7537 4.26C65.6471 4.52667 65.5071 4.74667 65.3337 4.92C65.1337 4.90667 64.8337 4.9 64.4337 4.9C64.1804 4.9 63.7204 4.91333 63.0537 4.94L61.9937 4.96C62.0604 4.57333 61.9004 5.47333 61.5137 7.66L61.1137 9.94C60.9804 10.7267 60.8404 11.76 60.6937 13.04C60.5604 14.1333 60.4404 14.9 60.3337 15.34C60.2404 15.78 60.0871 16 59.8737 16C59.5671 16 59.2004 15.8933 58.7737 15.68C58.3604 15.4533 57.9937 15.1867 57.6737 14.88C57.3671 14.5733 57.2137 14.32 57.2137 14.12C57.2004 13.8133 57.3604 12.9067 57.6937 11.4C57.9471 10.1333 58.1271 9.19333 58.2337 8.58C58.2337 8.60667 58.3404 8.05333 58.5537 6.92C58.7404 5.90667 58.8537 5.28667 58.8937 5.06L55.7737 5.44C55.5204 5.30667 55.3137 5.11333 55.1537 4.86C55.0071 4.59333 54.9337 4.30667 54.9337 4C54.9337 3.46667 55.1404 2.99333 55.5537 2.58C56.3137 2.47333 57.2604 2.40667 58.3937 2.38C59.5404 2.34 60.2204 2.31333 60.4337 2.3C61.8337 2.26 62.8537 2.22667 63.4937 2.2C64.1471 2.16 64.7004 2.09333 65.1537 2ZM69.2614 4.7C70.2081 4.80667 71.0681 5.09333 71.8414 5.56C72.6281 6.01333 73.2414 6.56 73.6814 7.2C74.1214 7.84 74.3414 8.48 74.3414 9.12C74.3414 10.08 74.0947 11.1 73.6014 12.18C73.1081 13.26 72.4214 14.1667 71.5414 14.9C70.6614 15.6333 69.6814 16 68.6014 16C68.0681 16 67.5014 15.8067 66.9014 15.42C66.3014 15.02 65.7947 14.54 65.3814 13.98C64.9814 13.4067 64.7814 12.9 64.7814 12.46C64.7814 11.6467 64.8814 10.8133 65.0814 9.96C65.2814 9.09333 65.5881 8.25333 66.0014 7.44C66.3881 7.22667 66.7747 7.12 67.1614 7.12C67.3347 7.12 67.4947 7.14 67.6414 7.18C67.5881 7.02 67.5614 6.83333 67.5614 6.62C67.5614 6.19333 67.7081 5.80667 68.0014 5.46C68.3081 5.11333 68.7281 4.86 69.2614 4.7ZM67.8814 13.72C68.9881 13.3467 69.8481 12.7067 70.4614 11.8C71.0747 10.8933 71.4814 9.81333 71.6814 8.56C71.0814 8.13333 70.2681 7.92 69.2414 7.92C68.9881 7.92 68.7947 7.92667 68.6614 7.94C68.8081 8.20667 68.8814 8.50667 68.8814 8.84C68.5347 9.38667 68.2681 9.99333 68.0814 10.66C67.8947 11.3133 67.8014 11.9733 67.8014 12.64C67.8014 13.04 67.8281 13.4 67.8814 13.72ZM86.8963 2C87.1496 2 87.4896 2.11333 87.9163 2.34C88.3563 2.56667 88.7363 2.83333 89.0563 3.14C89.3896 3.44667 89.5563 3.71333 89.5563 3.94C89.5563 4.06 89.4296 4.59333 89.1763 5.54C88.7096 7.22 88.3629 8.68667 88.1363 9.94C88.0029 10.7267 87.8629 11.76 87.7162 13.04C87.5829 14.1333 87.4629 14.9 87.3563 15.34C87.2629 15.78 87.1096 16 86.8963 16C86.5896 16 86.2229 15.8933 85.7963 15.68C85.3829 15.4533 85.0163 15.1867 84.6963 14.88C84.3896 14.5733 84.2363 14.32 84.2363 14.12C84.2229 13.9333 84.2629 13.58 84.3563 13.06C84.4629 12.5267 84.5829 11.94 84.7163 11.3L84.8963 10.44C83.6696 10.6267 82.4629 10.76 81.2763 10.84C81.1429 11.7333 81.0496 12.48 80.9963 13.08C80.8629 14.16 80.7429 14.92 80.6363 15.36C80.5429 15.7867 80.3896 16 80.1763 16C79.8696 16 79.5029 15.8933 79.0763 15.68C78.6629 15.4533 78.2963 15.1867 77.9763 14.88C77.6696 14.5733 77.5163 14.32 77.5163 14.12C77.5029 13.9067 77.5629 13.46 77.6963 12.78C77.8429 12.0867 77.9363 11.64 77.9763 11.44C78.0296 11.1733 78.1296 10.6867 78.2763 9.98C78.4229 9.26 78.5429 8.59333 78.6363 7.98L78.7963 7.04C79.0496 5.54667 79.2829 4.33333 79.4963 3.4C79.7229 2.46667 79.9496 2 80.1763 2C80.4296 2 80.7696 2.11333 81.1963 2.34C81.6363 2.56667 82.0163 2.83333 82.3363 3.14C82.6696 3.44667 82.8363 3.71333 82.8363 3.94C82.8363 4.06 82.7096 4.59333 82.4563 5.54C82.4029 5.75333 82.3096 6.11333 82.1763 6.62C82.0429 7.12667 81.9229 7.6 81.8163 8.04C83.0563 7.94667 84.2563 7.82 85.4163 7.66C85.4429 7.47333 85.4696 7.32667 85.4963 7.22C85.7363 5.74 85.9696 4.5 86.1963 3.5C86.4229 2.5 86.6563 2 86.8963 2ZM98.5991 13.06C99.4124 12.66 100.099 12.2333 100.659 11.78C101.246 11.98 101.679 12.26 101.959 12.62C102.252 12.9667 102.399 13.3667 102.399 13.82C102.399 14.14 102.172 14.4733 101.719 14.82C101.266 15.1533 100.726 15.4333 100.099 15.66C99.4724 15.8867 98.9391 16 98.4991 16C98.1924 16 97.8391 15.8867 97.4391 15.66C97.0524 15.4333 96.7124 15.1667 96.4191 14.86C96.1391 14.5533 95.9991 14.3133 95.9991 14.14C95.9991 14.0067 96.0524 13.8267 96.1591 13.6C96.2791 13.3733 96.4057 13.14 96.5391 12.9C96.6724 12.66 96.7591 12.5 96.7991 12.42L96.2991 12.14C95.5924 13.3 94.9124 14.2333 94.2591 14.94C93.6191 15.6467 92.9857 16 92.3591 16C91.9324 16 91.4791 15.8133 90.9991 15.44C90.5324 15.0667 90.1324 14.6133 89.7991 14.08C89.4791 13.5467 89.3191 13.0733 89.3191 12.66C89.3191 11.4733 89.5657 10.26 90.0591 9.02C90.5524 7.78 91.2391 6.75333 92.1191 5.94C93.0124 5.12667 94.0191 4.72 95.1391 4.72C95.5391 4.72 95.9457 4.9 96.3591 5.26C96.7724 5.62 97.0391 5.98667 97.1591 6.36C97.2257 6.06667 97.3191 5.81333 97.4391 5.6C97.5724 5.37333 97.7124 5.26 97.8591 5.26C98.2057 5.26 98.5857 5.38667 98.9991 5.64C99.4257 5.88 99.7857 6.16667 100.079 6.5C100.372 6.82 100.519 7.07333 100.519 7.26C100.506 7.51333 100.399 7.93333 100.199 8.52C100.012 9.10667 99.7057 10 99.2791 11.2C99.0257 11.8533 98.7991 12.4733 98.5991 13.06ZM92.4591 13.22C93.5391 12.5533 94.4791 11.7333 95.2791 10.76C96.0791 9.77333 96.6257 8.68667 96.9191 7.5C96.5591 7.34 96.2191 7.26 95.8991 7.26C95.2724 7.26 94.7124 7.54 94.2191 8.1C93.7257 8.66 93.3324 9.39333 93.0391 10.3C92.7457 11.2067 92.5524 12.18 92.4591 13.22ZM113.363 11.78C113.95 11.98 114.383 12.26 114.663 12.62C114.956 12.9667 115.103 13.3667 115.103 13.82C115.103 14.14 114.876 14.4733 114.423 14.82C113.97 15.1533 113.43 15.4333 112.803 15.66C112.176 15.8867 111.643 16 111.203 16C110.896 16 110.543 15.88 110.143 15.64C109.743 15.4 109.396 15.1267 109.103 14.82C108.823 14.5 108.683 14.2533 108.683 14.08C108.683 13.9467 108.83 13.4267 109.123 12.52C109.643 10.9333 109.903 9.93333 109.903 9.52C109.903 9.36 109.863 9.28 109.783 9.28C109.25 9.28 108.256 10.2133 106.803 12.08C106.75 12.2933 106.69 12.56 106.623 12.88C106.57 13.2 106.53 13.4267 106.503 13.56C106.356 14.3467 106.216 14.9533 106.083 15.38C105.963 15.7933 105.803 16 105.603 16C105.256 16 104.863 15.8867 104.423 15.66C103.996 15.42 103.623 15.1467 103.303 14.84C102.996 14.52 102.843 14.2533 102.843 14.04C102.843 13.8 102.93 13.4467 103.103 12.98C103.276 12.5133 103.536 11.8733 103.883 11.06C104.15 10.4333 104.35 9.94667 104.483 9.6C104.616 9.24 104.683 8.98667 104.683 8.84C104.683 8.73333 104.616 8.62 104.483 8.5C104.363 8.36667 104.176 8.20667 103.923 8.02C103.63 7.79333 103.41 7.61333 103.263 7.48C103.13 7.34667 103.063 7.20667 103.063 7.06C103.063 6.78 103.19 6.45333 103.443 6.08C103.71 5.70667 104.016 5.38667 104.363 5.12C104.723 4.85333 105.03 4.72 105.283 4.72C105.563 4.72 105.883 4.84667 106.243 5.1C106.616 5.35333 106.936 5.64667 107.203 5.98C107.483 6.3 107.623 6.54667 107.623 6.72C107.623 7.04 107.583 7.43333 107.503 7.9C107.436 8.36667 107.343 8.82667 107.223 9.28C108.196 8 109.003 7.01333 109.643 6.32C110.283 5.61333 110.783 5.26 111.143 5.26C111.396 5.26 111.703 5.38667 112.063 5.64C112.423 5.89333 112.73 6.18667 112.983 6.52C113.25 6.84 113.383 7.08667 113.383 7.26C113.37 7.48667 113.276 7.87333 113.103 8.42C112.93 8.96667 112.683 9.69333 112.363 10.6C111.936 11.7733 111.663 12.5667 111.543 12.98C111.956 12.7667 112.276 12.5867 112.503 12.44C112.743 12.28 113.03 12.06 113.363 11.78ZM126.866 11.78C127.453 11.98 127.886 12.26 128.166 12.62C128.459 12.9667 128.606 13.3667 128.606 13.82C128.606 14.14 128.379 14.4733 127.926 14.82C127.473 15.1533 126.933 15.4333 126.306 15.66C125.679 15.8867 125.146 16 124.706 16C124.399 16 124.046 15.8867 123.646 15.66C123.259 15.4333 122.919 15.1667 122.626 14.86C122.346 14.5533 122.206 14.3133 122.206 14.14C122.206 14.0067 122.259 13.8267 122.366 13.6C122.486 13.3733 122.613 13.14 122.746 12.9C122.879 12.66 122.966 12.5 123.006 12.42L122.506 12.14C121.799 13.2867 121.126 14.22 120.486 14.94C119.859 15.6467 119.259 16 118.686 16C118.259 16 117.799 15.8133 117.306 15.44C116.813 15.0533 116.393 14.6 116.046 14.08C115.699 13.5467 115.526 13.0733 115.526 12.66C115.526 11.42 115.786 10.1867 116.306 8.96C116.826 7.72 117.513 6.70667 118.366 5.92C119.233 5.12 120.146 4.72 121.106 4.72C121.493 4.72 121.886 4.82 122.286 5.02C122.699 5.22 123.086 5.49333 123.446 5.84C123.566 4.54667 123.626 3.1 123.626 1.5C123.626 1.22 123.713 0.986666 123.886 0.799999C124.073 0.599999 124.293 0.499999 124.546 0.499999C124.919 0.499999 125.333 0.633332 125.786 0.899999C126.253 1.16667 126.646 1.48667 126.966 1.86C127.286 2.22 127.446 2.51333 127.446 2.74C127.446 3.04667 127.379 3.44 127.246 3.92C127.113 4.38667 126.873 5.14667 126.526 6.2C126.046 7.62667 125.746 8.60667 125.626 9.14C125.266 10.5933 124.993 11.9 124.806 13.06C125.619 12.66 126.306 12.2333 126.866 11.78ZM118.666 13.22C119.573 12.54 120.399 11.8133 121.146 11.04C121.893 10.2533 122.519 9.34667 123.026 8.32L123.206 7.54C122.793 7.35333 122.426 7.26 122.106 7.26C121.479 7.26 120.919 7.54 120.426 8.1C119.933 8.66 119.539 9.39333 119.246 10.3C118.953 11.2067 118.759 12.18 118.666 13.22Z" fill="#FF1919"/>
</svg>
