<svg width="19" height="19" viewBox="0 0 19 19" fill="none" xmlns="http://www.w3.org/2000/svg">
<path fill-rule="evenodd" clip-rule="evenodd" d="M13.4167 7.58333C13.4167 10.805 10.805 13.4167 7.58333 13.4167C4.36168 13.4167 1.75 10.805 1.75 7.58333C1.75 4.36168 4.36168 1.75 7.58333 1.75C10.805 1.75 13.4167 4.36168 13.4167 7.58333ZM12.0631 13.7026C10.808 14.6231 9.25913 15.1667 7.58333 15.1667C3.39517 15.1667 0 11.7715 0 7.58333C0 3.39517 3.39517 0 7.58333 0C11.7715 0 15.1667 3.39517 15.1667 7.58333C15.1667 9.25913 14.6231 10.808 13.7026 12.0631L18.3272 16.6875C18.7798 17.1403 18.7798 17.8744 18.3272 18.3272C17.8744 18.7798 17.1403 18.7798 16.6875 18.3272L12.0631 13.7026Z" fill="black"/>
</svg>
