<svg width="17" height="19" viewBox="0 0 17 19" fill="none" xmlns="http://www.w3.org/2000/svg">
<path fill-rule="evenodd" clip-rule="evenodd" d="M8 0C5.79086 0 4 1.79086 4 4V5C4 7.2091 5.79086 9 8 9C10.2091 9 12 7.2091 12 5V4C12 1.79086 10.2091 0 8 0ZM5.5 4C5.5 2.61929 6.6193 1.5 8 1.5C9.3807 1.5 10.5 2.61929 10.5 4V5C10.5 6.38071 9.3807 7.5 8 7.5C6.6193 7.5 5.5 6.38071 5.5 5V4ZM1.50232 16.3686C1.97321 13.2577 5.01803 11.5 8.0022 11.5C10.9858 11.5 14.031 13.2577 14.5019 16.3686C14.5046 16.3866 14.5025 16.3972 14.5 16.4048C14.497 16.4137 14.4903 16.4269 14.4759 16.442C14.4453 16.4741 14.3894 16.5039 14.3171 16.5039H1.68718C1.61487 16.5039 1.55898 16.4741 1.52838 16.442C1.51394 16.4269 1.50726 16.4137 1.50427 16.4048C1.50174 16.3972 1.49961 16.3865 1.50232 16.3686ZM8.0022 10C4.57321 10 0.640366 12.0404 0.0192165 16.1441C-0.143763 17.2208 0.757267 18.0039 1.68718 18.0039H14.3171C15.247 18.0039 16.148 17.2208 15.985 16.1441C15.3638 12.0404 11.4306 10 8.0022 10Z" fill="black"/>
</svg>
